<svg id="fullscreen" xmlns="http://www.w3.org/2000/svg" width="13.5" height="13.5" viewBox="0 0 13.5 13.5">
  <path id="Path_2932" data-name="Path 2932" d="M1.266.844a.422.422,0,0,0-.422.422V4.641a.422.422,0,0,1-.844,0V1.266A1.266,1.266,0,0,1,1.266,0H4.641a.422.422,0,1,1,0,.844ZM8.438.422A.422.422,0,0,1,8.859,0h3.375A1.266,1.266,0,0,1,13.5,1.266V4.641a.422.422,0,1,1-.844,0V1.266a.422.422,0,0,0-.422-.422H8.859A.422.422,0,0,1,8.438.422ZM.422,8.438a.422.422,0,0,1,.422.422v3.375a.422.422,0,0,0,.422.422H4.641a.422.422,0,1,1,0,.844H1.266A1.266,1.266,0,0,1,0,12.234V8.859a.422.422,0,0,1,.422-.422Zm12.656,0a.422.422,0,0,1,.422.422v3.375A1.266,1.266,0,0,1,12.234,13.5H8.859a.422.422,0,1,1,0-.844h3.375a.422.422,0,0,0,.422-.422V8.859A.422.422,0,0,1,13.078,8.438Z" fill-rule="evenodd"/>
</svg>
